<?xml version="1.0"?>
    
<!--********* Copyright (c) 2024 Pareto Softare, LLC DBA Simplemaps.com ***************************************
************* Free for Commercial Use, full terms at  https://simplemaps.com/resources/svg-license ************
************* Attribution is appreciated! https://simplemaps.com *******************************************-->

<svg baseprofile="tiny" fill="#6f9c76" height="1000" stroke="#ffffff" stroke-linecap="round" stroke-linejoin="round" stroke-width=".5" version="1.2" viewbox="0 0 1000 1000" width="1000" xmlns="http://www.w3.org/2000/svg">
 <g id="features">
  <path d="M584.2 591.7l-0.5-1.2 0.2-3.2-0.1-1.4-0.8-1.7-4.1-5.4-2.5-2.1-0.4-0.6 0-3.9-0.6-2.8-1-1.7-7-6.8-0.1-0.6 1.4 0.2-0.8-1-2.1-1.8 0-0.6 0-0.4-0.9 0.5-1 0.2-0.7 0.5-0.3 1.1 0.9 5.6 0.7 1.5 0.1 0.4-0.2 0.7-0.5 0-0.6-0.3-0.6-0.2-0.2-0.3 0.1-1.3-0.1-0.5-1.1-1.4-1.6-1.2-1.8-0.9-6.4-2.3-1-0.6-0.8-0.1-0.7 1.1-0.4 0-1.3-0.6-0.4-0.3-0.2-0.5 0-0.4 0.2-0.4 0-0.3-0.4-1.2-1.1-1.9-0.1-1.1 1.6 0.4 1.5-0.5 1.3-1 0.9-1 0.5-1.4-0.5-1.2-0.9-0.6-0.7 0.7 0.4 0.2 0.4 0.3 0.2 0.3 0.2 0.4-0.9 1.1-1.2 0.7-1.1-0.1-0.5-1.4 0.2-2.7 0.3-1.3 0.7-1.3-0.3 0-0.4 0.5-0.9 1.6-0.4 0-0.2-0.7-0.2-0.8 0.1-0.7 0.3-0.7-0.7 0.5-0.9 0.4-0.9-0.1-0.3-0.8-1 0.3-0.3 0.1 0.6 0.4 0.2 0.5-0.1 0.6-0.2 0.6 0.3 0 1.3-0.9 0.4 0.7 0.3 0.6 0 0.6-0.3 0.7 1.2 0.9 0.6 1.9-0.5 1.2-2.2-1.1-3.6-3.8-1.8-0.9-0.8-0.6 0.1-0.5-0.9-1.3-1.4-1.5-0.9-1.4 0.4-1.3 0.2 0.5 0.2 0.2 0.4 0 0.4 0.1-0.8-0.5 0.4-0.5 0.8-0.6 0.4-0.9-0.4 0-0.3 0.6-0.4 0.2-0.5 0-0.4-0.3 0.6-0.6 0.3-0.2 0.3-0.1-3 0.1-0.3-0.5 1.3-1.2-2.5 0.1-0.8 0.2 0 0.5 0.8 0.6 0.5 0.8 0.7 0.6 1.3 0.1-0.3 0.7-0.1 0.8-0.1 1.8-2-3.1-0.8-0.9-1-0.4-1.2-0.1-0.7 0.3 0-2.6-0.1-0.7-0.3-0.6-0.3-0.3-0.1 0.3-0.1 0.3-0.5 0.4-0.2 0.4 0.8 2.6 0 0.7-2-1.6-0.9-0.9-0.4-0.8 1.2 0.3-0.2-1-0.4-0.2-0.5 0.1-0.5-0.1-0.5-0.5-0.2-0.4-0.2-0.5-0.3-0.7-1-1.4-1.1-1.1-1.3-0.9-1.5-0.8-1-0.3-3.7-0.1-1.1 0.3-0.6 0.9-0.4 0.9-0.5 0.8-1.1 0.5-1.2 0.1-2.4-0.1-0.5 0.1-0.1 0.4 0.1 0.4-0.1 0.3-0.3 0.1-0.7-0.1-0.9 0-1.8-0.4-2.7 0.4-1.3 0.5-0.5 0.5-0.3 1.2-0.6 0-1.6-0.9-4.1-1.9-4.4-1.1-9.6-1.3-1.3 0.3-2.1 1.2-2.5 0.5-0.7 0.6-0.2 1 0 1.5-2.9-1.3 0-0.4 0.9-0.7-0.4-1-1-0.6-1.1 0.7-0.6-0.4-0.5 0-0.6 0.2-0.7 0.2 0.2-0.2 0.3-0.3 0.2-0.4 0.1-0.4-1.2 0 0.2-0.4 0.4-0.9 0.2-0.4-0.5 0-1.2-0.4 1.1-2.7 0.8-1.2 1 0.5 0.4 0 0.4-0.6 0.5-0.6 0.5-0.7 0.3-1-0.1-1-0.3-0.8-0.5-0.8-2.2-3.2-0.2-0.9 0.2-0.5 0.4-0.4 0.5-0.3 0.5-0.5 0.1-0.5 0.2-1.1 0.1-0.5 0.6 0.3 0.6-0.3 0.6-0.6 0.3-0.6-0.1-1.5-0.6-1-0.7-0.9-0.3-1-0.2-0.4-0.6-0.2-0.6-0.2-0.2-0.7 1.2-1.7 1-1.8 1.3-1.7 0.5-1.1-0.1-1.1-0.6-2.2-0.3-0.6-0.8-1.3-0.2-0.5 0.1-0.6 0.3-0.4 0.3-0.3 0.5-1.4 0.9-0.4 1.1-0.2 0.9-0.7 0.3-0.8 0.1-1.4-0.2-1.3-0.8-1.2 0.4-1.4 1.1-1.8 0-0.5-0.7 0.5-0.6 0.6-0.7 0.5-0.7 0.2-3.7 0-1.5-0.2-3-0.9-2.5-0.3-1.3-0.6-4.1-0.6-1.8-0.6-2.4-1.7-1.1-0.4-0.1-0.5 0.1-0.6 0.3-0.7 0.1-0.8 0-1-0.7 1.3-0.2 1 0.1 2.5-0.5 0.9-1.2 0.5-7.5 1.4-3-0.2-1.4 0.1-1.2 0.5-2.8-1.4-0.9-0.7-0.6 1.2-0.7 0.7-0.9 0.5-5.2 2-2.2 0.5-1.5 0.6-1.1 0.6-1 0.2-0.9 0.7-0.4 1.2-0.6 1-1.2-0.3 0.9 0.3-0.1 1.1-0.5 1-0.7 0.6-1 0.3-0.9 0.5-0.1 1 0 0.1 0.4 2 1.8 2.5 3.5 2.9 0.2 0.3 0.4 0.3 0.4 0.5 0.2 0.6 0.1 0.5 0.6 2.3 1 2.4-0.2 1.1-0.5 1-2 2.6-0.4 0.9-0.6 2-0.8 4.4-0.3 0.9-2.2 3.4-0.8 2.4-0.6 2.5-0.2 2.6 0 2 0 0.6 1 4 0.2 1.2-0.2 3.9 0.2 1.3 1.8 4.4 0.1 0.9-0.5 0.9-1.4 4.5 0.1 0.6 0.5 0.7 0.6 0.5 0.5 0.6 0.3 0.6 0.2 1.3 0.1 0.4 0 0.6-0.2 0.8-0.3 0.3-1 0.8-0.4 0.5-0.4 2.2-0.2 0.6-1.3 2.2-6 6.3-1.4 2.7-0.5 2.8 0.8 2.1-0.2 0.4-0.8 0-0.4 0.3-0.2 0.5 0 0.6 0.4 2.3-0.1 0.4-0.2 0.4 0 0.6 0.3 0.7-2.1 0.3-1.8 1.6-4.8 8.1-0.3 0.6-0.3 1-1.1 1.7-0.3 1.1-0.1 1.4-0.2 1.3-0.4 1.2-1.5 3.4-0.2 0.6-0.2 0.7-1.2 1.2-0.2 0.6-0.2 3.5 0.2 1.3 1 2.5 0 1.1-1 1-0.5-1.2-0.9 0-1.1 0.7-0.8 0.9-0.4 0.6-0.4 0.9-0.3 0.9-0.1 1.1 0.2 1.3 0.9 2.2 0.1 1.1-0.1 1.2-0.6 1.4-0.2 0.7-0.3 1.1 0.1 1.4 0.9 2.5 0.2 1.3-0.2 0.9-0.5 0-0.4-0.5-0.1-0.2-1.1-0.1-0.9 0.1-0.5 0.2-0.5 0.3-0.3 0.5 0 2.5-0.2 1.1-3.6 5.5-0.2 0.5 0.1 0.6 0.2 0.5-0.2 0.2-0.7 0.1-1.1 0.3-1 0.7-0.8 1-0.6 1-0.4 1.2-0.5 2.9-0.6 1-0.6 0.3-0.8 0.1-0.6 0.3-0.2 0.8 0.1 0.4 0.4 0.3 0.5 0.1 0.6 0-0.4 0.8-0.6 0.7-0.4 0.7-0.2 0.9 0.3 0.8 1.9 1.2 0.6 0.7 0.2 0.8-0.1 1.1-0.3 1-0.4 0.5-0.8 0-0.5 0-1.3 0.8-0.2-0.8-0.4-0.5-0.7-0.4-0.7-0.4-1 0.4-0.7 0.1-0.7 0.1-0.5 0.7 0 0.6 0.4 2.7 0.6 0.9 2.2 2 1.1 1.3 0.7 0.2 1.1-0.3-0.8 1.2-2.4 0.2-0.5 0.9-0.3 1.5-1.6 2.6-0.5 1.5 0.1 1.7 0.6 1.1 0.6 0.9 0.3 1.1-0.2 0.7-0.8 0.6-0.2 0.8 0.4 2.6 0 4.8 0.1 0.2 0.2 0.2 0.1 0.2 0 0.5-0.2 0.3-0.8 0.6-0.2 0.3-0.2 0.6-0.2 0.6 0 1.1 0 0.2 0.2 1.3 0.8 2.4 0.3 2.4 0.3 1.3 0.5 1.4 1.9 2.7 0.3 1 0.1 1.4 0.2 1 2.6 4.6 3.4 4.5-0.4 0.1-0.3 0-0.3-0.1-0.4 0-0.5 0.1-0.1 0.2 0.1 0.3-0.2 0.2-1.4 0.9-0.6 0.4-1.1 1.2-0.3 1 0.2 2.5 1.2 2.8 2.8 0.6 2.9 0.2 1.7 1.6 1.9-0.2 2 0 1.8-0.3 1.6-1.2 0.5-0.9 0.3-1.1 0.4-1 0.9-0.7 0.7-0.1 2.7 0.5 1-0.2 0.8-0.4 0.6-0.4 0.5-0.2 1.8-0.4 1-0.7 0-0.1 2.3 0.1 0.4 0.1 0.3-0.5 0.8 0 1.1 0.5 0.6 0.2 0.3-0.3 0.7-0.3 0.3-0.3 0.7 0.7 2.3 1 0.1 0.6-0.1 0.7 0.4 1 1.1 1.9 0.4-0.5 0.1 4.6 0.3 1.2 0.5 0.8 0.5 0.6 0.4 0.8 0.2 0.9 0 2.9 0.2 0.6 0.5 1 0.1 0.7-0.1 0-0.2 0.4-0.3 0.4-0.2 0.4 0 1.5 0.7 4.6-0.3 1 0.8 1.8 1.2 11.8 0.5 1.9 1 1.6 3.4 2 0.5 0.9 0.2 1 1.4 2.7 0.9 1.4 0.4 1.2 0.4 0.5 0.4 0.3 1.3 0.6 0.3 0.1 0.3 0.8 0.8 0.2 1-0.3 0.7-0.4-0.5-1.8-0.1-2.4-0.6-2.1-2.1-0.8 1.2-0.5 1.8 1.3 1.7 1.9 0.7 1.3 3 7.9 1.9 11.9 2.3 10.9 1.5 6.8 4.4 20.9 3.6 8.6 3.2 5.1 0.7 1.2 0.5 1.2-0.1 0.9-1.5-0.1-0.7-0.8-2.2-2-1.1-0.7-0.5-0.3-1.7 0.1-1.1-0.6 0.8-1.6-0.6-1.9-0.4-2.6-0.8-0.6 0.1-4.7-0.3-4.2-1-2.3-1.8-0.8-2 0.3-1.3 2-0.4 1-0.4 0.4-0.6-0.4-0.4-0.4-0.2-0.4 0-0.5 0-0.7 0.4-1.2 2-1.2 0.8-1.1 0.2-2.4-0.4-3.1-0.8-3.1-1.1-1.8-1.1-0.4-1.1 0.2-1.2 0.4-1.2 0.3-0.6 0.5-2.6 2.3-0.7 0.9-0.1 1.1 0.7 5.1 1 2.9 0.4 2.2 0.4 1 0.6 0.4 0.2 0.2 1.3 1.1 0.3 0.4 0.1 0.3 2 4.8 1.1 1.9 1.4 1.2 1.3 0.2 1.5 0 1.2 0.4 0.5 1.3 0 0.1 0 1.3 0.2 0.7 0.2 0.6 0.5 0.5 0.8 0 0.6 0.3 0.6 0.5-1 0.5-0.5 0.2-0.4 0.3-0.2 0.3 0.2 0.7 0.4 0.5 0.5 0.3 0.8 1.6 0.8 0.7 0.8 0.3 0.9-0.2 0.7 0.7 0.5 0.4 0.5 0.2 1.5 0.1 0.7-0.2 1.5-0.4 1.4-1.4 0.5-0.7-0.2-1.6 0-1.1 1.6 1.9 9.1 12.6 1.2 1 1.6 0.5 0.9 0.4 1.4-0.6 1 0.9 1.8 1.6 3 2.4 3 1.4 1.7 0 2.5-0.1 7.3-0.2 2.4-1.1 0.8-1.3 2 0.3 0.8 0.7 1.1 0.3 0.4 0.2 0.2-0.1 1.9 0.1-0.5-1.2-0.9-1.3-3.9-1.6 1.7-0.6 1.7 0.3 1.6 1.3 2.3 1.4 2 0.6 1.1 0.3 0.9 0.1 1.1 0.3 1 0.3 0.5 0.3 1.6 0.7 2 1.2 0.6 0.6 6.1 10.4 3.2 5 2.9 4.5 2.2 2.1 6 3.8 6.6 6.4 3.2 2.2-0.4 3.2 0.3 4.7-0.7 1.9-1.6 1.6-4.4 3.4-1.5 1.8-0.9 2.5 0 2.5-0.4 2.3-1.9 1.7-0.7 0.4-0.3 0.5-0.2 0.6-0.3 0.5-1.8 1.1-0.3 0.3-0.5 1.3-0.7 0.8-0.9 0.1-1.3-0.7-0.5-0.7-0.4-0.7-0.5-0.6-0.8-0.2-0.7 0.2-1 0.9-0.1 0.1-0.5 0.3-1.3-0.3-0.9-1-1.2-2.7 0.1-0.6 0.1-0.6 0-0.5-0.5-0.2-0.7-0.1-0.5-0.3-0.3-0.5-0.3-0.7-0.9-1.2-1.3-0.3-1.4 0.3-2.1 0.8-6.4 2.5-2.1 1.4-2.3 1.1-2.3 0.4-1.8 0.9-0.8 2.8-0.1 1.3-0.6 1.2-0.7 1.1-0.9 0.8-2.8 1.7-1.7 0.5-1-0.4-0.7-1.5-0.9-1.5-1.1-1.3-1.3-0.9-0.6-0.1-1.2 0-0.6-0.2-0.4-0.5-0.7-1.4-0.4-0.7-0.3-0.5-0.1-0.7 0.1-0.7 0.4-0.7 2.4-4.9 1-0.7 1.3-0.2 1.1-0.4 0.4-1.1 0.1-1.2 0.4-1.9 0.1-3.4 0.3-2.4-0.4-1.2-1.1-0.8-0.9-0.9 0-1.4 0.8-1 0.8-0.3 0.5-0.5 0.2-1.5-0.2-1.2-0.4-0.8-0.8-0.3-2.7 0.6-1-0.3-1.9-1.6-1.1 0.3-1.6 1.7-1.1 0.2-2.5-0.6-0.8-0.1-0.7 0.3-0.4 0.4-0.2 0-0.5-0.9-0.2-0.5 0-1.7 0.1-0.6 0.2-0.5 0.1-0.6-0.1-0.5-0.7-1.2-0.2-0.7-0.2-0.6-0.2-2.9-0.5-1.1-1.4-0.8-0.7-0.1-0.6 0-0.5-0.1-0.5-0.4-0.2-0.5 0-1.3-0.1-0.4-1 0-3.8 2.8-1.1 0.1-1.1-0.3-2-0.9-3.6-1-1.1-0.5-1.9-1.4-0.9-0.2-1.5 0.2-1.1-0.1-1.3-0.4-0.6-0.3-1.7-0.8-1.1-1.1-0.7-1.1-2.2-6.7-0.4-0.5-0.7-0.2-0.7-0.1-0.5 0.1-0.9 0.5 0 0.2-0.9-0.1-0.5-0.2-0.3-0.4-0.1-0.1-0.6-0.4-0.8 0.3-0.4 0.5-0.2 0.7-0.1 1.3-0.4 2.5 0.1 1 0.5 1.4 0.1 0.8-0.4 0.6-0.5 0.4-0.4 0.6 0 0.6 0.2 1 0 0.5-0.3 1.5-0.5 1.3-0.5 1-0.4-1.3-0.7-1-1.1-0.3 0.7-1.9 0.1-1-0.6-0.4-0.8 0.2-0.4 0.5-0.6 1.3-2-1.7-1.7-1.9-0.2-0.6-0.2-0.7-0.2-0.6-0.4-0.2-0.8 0.4-0.4 0.1-0.2-0.3 0.1-0.4 0.6-0.8 0.1-0.3-0.2-0.6-0.5-1-0.1-0.6-0.3-0.2-0.5 0-0.6-0.1-0.3-0.6-0.2-1.1-0.7-0.7-1.5-1.2-1.5-2.3-0.9-0.8-1.1 0.4-0.5 0-0.4-0.8-0.5-1.5-0.4-0.6-0.4-0.2-5.1-2-1.5-1.3 0-2.5 0.3-1 0.3-0.2 0.9 0 0.2-0.2-0.1-0.6-0.3-0.6-0.7-0.2-0.9-0.5 0.1-1.2 0.2-1.2-0.4-0.8 1-2 0.6-0.9 0.7-0.4 0.1-0.4 1.7-2.3-0.4-0.6-1 0.3-1.2 0.6-0.7 0.3-0.9-0.4-0.3-0.7 0-2.2-2.1 1.2-0.9 0.9-0.5 0-0.2-0.9-0.4 0-1.2-0.3-1.5-2.5-1.1-2.8 0.3-1.3 1.3-0.7 1.1-1.7 0.8-2.2 0.3-2-0.4 0-1.6 3.2-1.2 1.3-1.5-0.6-0.2-0.9 0.3-2.6-0.3-0.9-0.8 0-0.6 0.8-0.4 1.2-0.2 1 0.3 2.1-0.3 0.8-1 0.4-0.6-0.2-0.9-0.4-0.8-0.5-0.4-0.4-0.3-0.2-1.7-0.3-0.8-0.5-0.8-0.9-1.7-2.9 0.6-0.9 0-1.4-0.2-2.8-0.1-0.4-0.6-1-0.1-0.7-0.3 0-1.3 0-0.4-0.2 0.7-1.2 0-1.4-0.5-1.5-0.4-2.7-0.4-0.1-0.6 0.3-0.5 0.1-0.5-0.3-0.6-0.4-0.2-0.4 0.7-0.2 0.3-0.4-0.4-0.8-0.7-0.9-0.8-0.3-1-0.2-0.5-0.3-0.8-1.2-1.2-0.9-1.1-0.6-1-0.8-0.4-1.4-0.4 0-0.1 2-0.6 1.7-1.2 0.8-2.1-0.4-1.4-1.4-0.3-4-0.8-1.6 2.5-1.9 0.3-0.8 0.2-1.1 0.3-1.8 0-1-1.2 1.2-0.5 0.2-0.8-0.1-0.3-0.4-0.9-1.5-0.4-0.5-1-0.2-1-0.6-0.4-1.2 0.1-0.6 0.1-0.4 0-0.3-0.2-0.5-0.4-0.5-1-0.6-0.5-0.4-0.3-0.6-0.1-0.4-0.2-0.2-0.8 0.2-0.4 0.3-0.4 1.1-0.2 0.2-0.9 0.3-0.9 0.5-0.9 0.3-0.8-0.2-0.3-0.5-0.4-1.3-0.3-0.5-0.8-0.5-0.3 0.3-0.2 0.5-0.2 0.3-0.7 0.7-0.4 0-0.1-0.9-0.1-0.6-0.8-0.7-0.3-0.5-0.2-1.2 0.2-2.9-0.2-0.8 0.2-2 0-1-0.2-1-1-2.3-0.9 1.7-0.3 0-0.3-4.4-0.4-0.6-1.1 0.3-1.7 1.1-0.7-0.2-0.4 0 0 0.5-0.4 0-0.1-0.8 0.3-3.2 0.3-0.5 1-0.7 0.4-0.8-0.8-0.4-1.3-0.2-1-0.4-0.3 1.3-0.8 0.4-1 0-1 0.5-0.6 0.7-0.9 0.7-0.9 0.3-0.6-0.7-0.4 0-0.1 0.7-0.4 0.4-0.4 0-0.4-0.6-0.4 0 0 0.8-1.2-0.2-1 0.5-0.4 0.6 1.8 0.8 0.3 1 0 1.1 0.3 0.9 0 1.7-1 2.4-1.2 1.6-0.8-0.9-0.4 0 0 0.5-0.2 0.4-0.6 0.8-1-0.9-1.1-2.1-1.5-0.6-0.2-0.4-0.2-0.4-0.7-0.2-0.7-0.1-0.5-0.1-0.4-0.3-0.3-0.3-0.2-0.9 0-2.6-0.4-0.9-0.5-0.9-1.2-5.6-2.6-7.7-0.1-1.3 0.3-1.1 0.4-0.4 0.2 0.5 0.2 1.2 0.4 0.7 1.5 1.6 0.3-1.2-0.5-0.8-0.8-0.5-0.6-0.8-0.1-0.4 0.2-0.3 0.2-0.2 0.1-0.3-0.1-1 0.1-0.3 0.6-1.8 0.2-0.6-0.1-1.4-1-2.3-0.1-0.9 0.2-0.5 0.4-0.3 0.5-0.3 0.5-0.5 0.2-0.4 0.1-0.4 0.2-3.7 0.3-1.4 1.3-2 0.6-2.4 1.1-1.6 0.8-1.5 0.5-0.3 0.2 0.2 0.9 0.2 0.7 0-0.2-0.6-0.1-0.7 0.6-0.9 1.4-1.5-1.8 0.7-1.1 0.3-0.6-0.5-0.2-1.5 0.7-0.7 1.5 0 0.9-0.5-0.7-1.9-1.7-2.3-0.8-1.4-0.3-1.5-0.1-1.2 0.3 0.3 0.8 0.3 0.5-0.2 0.4-0.4 0.9-1-1.1-0.6 0-1 0.6-1 0.1-0.8 0.8-1 0.4-1.1 0.8-3.7 0.5-1.1 1.2-2.2 1.1-5.3 0.8-1.7 1.8 1.2 1.9-1.5 0.7-0.8-0.2-0.6-0.4-0.1-1.2 0.2-0.4-0.1-0.3-0.2-0.2-0.8-0.1-0.2-1.2-0.5 0.5-1 1.1-0.8 0.6 0 0.1-0.2 0.6-0.7 0.1-0.3-0.2-0.5-1-1.4 0.9 0 0.2-0.5-0.4-0.7-0.7-0.5 0.4-0.4 0.9 0.6 0.9 0.4 0.8-0.1 0.3-1.1 0.2 0 0.5-0.6 0.3-0.5-0.4-0.3-1.2 0-0.6-0.2-0.5-0.3-0.3 0.5 0 0.1-0.1 0.3-0.4 0 0.1-0.5 0-1.3-0.1-0.3 0.5-0.5 0.5-0.1 0.5 0 0.5-0.2 0.8-0.6 0.7-0.7 0.5-0.9 0.5-1.1-0.5 0.4-1 1.3-0.5 0.3-0.6-0.1-0.3-0.4-0.3-0.5-1-0.6 0.5-1.1 0.9-1.1 0.8-0.7 0.2 0.5 0.4 0.2 0.5 0 0.5-0.3-0.4-0.4 0.9-0.6 0.3-0.7-0.2-0.2-0.5-0.1-0.4-0.3 0.1-0.3 0.6-0.6 0.5-0.7 0.5-0.4 1.3 0.1 0.5-0.3 0.2-0.7-0.6-0.2-0.7 0.1-0.1 0.3-0.6-0.8 0-0.4 0.2-0.8 2.7-4.6 0.8-1 1.6-4.6 1.4-2.6 0.5-1.4 0.3-1.4 0.1-1.3 0.2-1.2 0.9-2.2 0.1-1.3 1.1-3.7 0.6-3.1 0.8-2.3 0.1-1.2-0.8-3.8-0.4-0.7-1.2-1-0.2-0.7 0.5-2.7 0.6-1.3 2.7-3.5 1.1-1.1 0.6-0.1 1.2-0.1 0.5-0.1 0.4-0.6 0.2-0.6 0.3-0.6 0.5-0.6 0.8-0.4 0.6 0.2 0.5 0.2 0.6 0.1 2.1-1 0.3 0 0.5-0.5 0.2-0.5 0.2-1.2 0-0.9-0.4-1.3-0.2-0.7 0.1-0.6 0.1-0.7 0.2-0.6 0.4-0.6 0.5-0.5 0.3-0.1 0.3 0.1 0.7 0.2 0.7 0.2 0.6 0.3 0.6 0 0.5-0.7 0.6-1.9 0.2-0.5 1-1 2.4-1.2 0.4-0.4 0.7-0.5 0.4-0.6 0.5-1.2 0.5-0.6 0.6-0.4 1.2-0.4 0.4-0.5 1.8-5.4 0.8-1.4 1.9-2.3 0.7-1.4 1-2.4 0.6-0.9 2.2-2.5 0.4-1 0.1-1.1 0.3-1.5 0.6-1 1.7-1.7 0.8-1 0.5-1.2 0.2-1-0.1-2.5 0.1-1.4 0.5-1 1-0.6 1.4-0.3 2.5-0.2 0.7-0.5 3.8-5.2 0.5-1.5 0.9-4-0.1-0.6-1-0.3-1.2-0.7-1.1-1-0.7-0.9-0.4-1.3 0.2-1.3 0.9-2.4 0-1.3-0.4-1-0.8-0.8-1.1-0.3-1-0.9 0.2-1.7 1-2.9 0.1-0.7 0.2-0.6 0.2-0.6-0.3-0.5-0.5-0.2-0.6 0-3.4 1.1-0.8-0.2-0.2-1.1 0.3-0.6 0.6-0.5 0.5-0.5 0.1-0.8-0.2-0.7-0.7-1.2-0.2-0.6-0.1-0.7 0.2-1.1-0.2-0.6-0.4-0.7-0.9-1.1-0.3-0.7-0.2-1.2-0.2-3.4-0.4-1.3-1.3-2.5-0.3-1.2 0.2-0.7 0.6-1.3 0.2-0.6 0.2-1.4 0-1.3-0.1-0.9-0.1-0.6-0.6-0.8-2.9-1.7-0.7-0.5-0.6-0.6-0.4-0.6-0.4-0.5-1.4-0.4-0.6-0.3-0.2-0.5-0.1-1.3-0.3-0.5-0.6-0.4-1.3-0.2-0.6-0.3-0.6-1.1-0.1-1.1 0.1-1.1-0.2-1.3-0.5-0.7-1.1-1.1-0.5-0.7-0.2-0.6-0.2-1.9-0.8-1.8-0.1-0.6 0-0.8 0.2-0.6 0.4-0.5 0.2-0.7-0.1-1.2-0.9-1.2-1.1-1-1-0.6-1.3-1-0.3-1.2 0.3-1.4 0.5-1.5 0.2-1.5-0.2-1.4 0-1.2 0.7-1 1.2-0.4 2.3-0.3 0.9-0.7 0-0.1 0.2-1-0.3-1.3-0.7-2.3-0.1-0.8 0.3-0.6 0.3-0.5 0.3-0.6 0-0.6-0.2-1.2 0.3-3-0.1-1.2-2.1-9.5-0.1-5.2 0.1-1.4 0-1.6-0.3-0.5-0.3-0.5-2-1.9-0.4-1-0.7-2.9 0-1.1 0.1-0.7 0-0.5-0.1-0.4-0.3-0.5-0.3-0.2-0.8-0.2-0.3-0.2-0.3-0.4-0.3-0.9-0.2-0.3-1.9-1.5-0.5-0.7-0.6-1.3-0.8-1.2-1.9-2.3-0.3-1.1-0.1-1.4-0.6-1-1.1-0.7-1.4-0.4-1.3-0.6-7-5.4-1.4-1.4-1.4-2.9-0.6 0-0.7 0.2-0.9 0-0.4-0.3-0.8-1.1-0.4-0.3-0.4-0.2-0.9-0.3-0.4-0.1-0.8-0.5-0.5-0.5-2.7-3.5-4.2-8.5-0.7-0.4-0.8-0.3-0.4-0.9-0.3-1.5-0.6-1.3-0.7-1.2-7.2-7-3.3-5.2-0.4-1.2 0.2-0.9 0-0.3-0.2-0.4-0.6-0.5-0.2-0.4-0.1-1.2 0.1-2.3-0.4-1.3-1.2-2.1-0.3-0.7 0-0.3 0-0.5 0.3-0.6 0.3-0.5 0.2-0.6-0.3-1.4-1.8-1.9-0.5-1.5 0.3-1.2 1.2-2.1 0.3-1.2-0.4-0.8-0.4-1 0-0.7 1.8 0 0.5 0.1 1-0.5 0.9-0.9 2.1-3 0.7-0.2 1.4 0.2 1.1 0.5 2 1.2 0.9 0.4 0.4-0.2 0.2-0.4 0-0.9-0.2-0.4-0.3-0.3-0.4-0.2-0.2-0.1 0.1-0.3 0.2-0.4 0.1-0.2 0.1 0 0.5-0.4 0.3-0.3 0.1-0.5-0.2-1.1 0-0.5 0.4-0.3 2.1-0.4 1-0.4 1.1-0.6 1.2 0.5 1.3 0.7 0.8 1 0.2 1.3 1.6-1.8 0.6-2.9-0.2-3.1-1.4-9.2 0.2-3.5-0.1-1-0.3-2.3 0.2-1.5 1.9-6.2 0.1-1.1-0.4-2.6-0.1-1.5 0.7-2.4 0.2-1.1-0.4-1.3-1.6-2.3-0.2-0.8 0.6-0.5 0.7 0.1 0.7 0.3 0.6 0.2 0.8 0 0.5-0.1 0.4-0.2 0.7-0.6 0.8-1.2 0.4-1.2 0.5-1.1 1.2-0.6 1.1 0 3.6 0.4 0.8 0.4 0.3 0.4 0.4 0.3 0.9-0.1 0.6-0.4 1.4-1.6 0.2-0.5 0-1.5 0.1-1.3 0.4-1.2 0.7-1.1 1.7-2 0.3-1 0.3-2.8 0.6-2.7-0.1-1.2-1-1.5-1.4-0.9-1.1-1.1-0.2-2.1-1.3 1-0.5 1-0.5 2.6-0.8 1.5-3.6 2.9-1.7 2.7-1 0.7-1.1-0.9-0.4-0.9-0.9-4.5-0.7-1.8-0.1-0.6 0.6-1.3 0.1-0.7-0.5-1.1-3.7-4.9-0.3-0.6 0-0.7 0.2-0.7 0-0.5-0.1-0.6-0.3-0.6-0.9-1.2-2-1.4-0.9-1.2-0.4-1.7-0.3-0.7-1.7-1.4-0.2-1.1 0.5-1.2 0.7-1 0.9-0.3 1-0.6 0.7-0.8 0.2-0.6-0.5-0.5-0.6-0.3-0.5-0.3-0.3-0.8 0.2-0.8 0.5-0.3 0.7 0.1 0.7 0.6-0.5-1.8-0.4-0.8-0.6-0.4-0.9-0.5-0.2-0.9 0-1-0.4-0.8-0.6-0.9-1-2-0.7-0.9-1.1-1.1-1-0.7-1.2-0.4-3 0-1-0.4-0.8-0.8-0.8-1.4 0.2-0.2 0.3-0.5 0-0.5-1.6 0-0.1-0.6 0.3-0.7 0.5-0.5-1.4-1-2.1-3-1.1-1-1-0.5-5.1-4.9-0.4-0.6-0.2-0.8 0.3-1.3 0-0.8-0.4-0.9-0.7-0.4-0.8-0.3-0.9-0.5-0.7-0.8-0.5-0.9-0.6-1.7-1.3-2.1-0.3-1-0.5-0.6-0.6-0.4-1.4-0.6-0.9-0.6-1.5-1.5-8.3-7.7-0.6-0.8-0.4-0.9 0-0.8-0.1-0.7-0.1-0.6-0.5-0.7-1.4-1.2-0.4-0.7-0.2-0.9-0.6-0.7-0.8-0.6-0.5-0.9 1.4-0.2-0.8-2.9 0.4-1 1.7-3 1.6-1.1 0.2-0.1 0.2-0.4-0.1-0.7-0.3-0.7-0.2-0.4-0.3-0.3-0.8-2.1-0.2-0.8-0.1-0.2-0.9-0.4-0.2-0.2-0.3 0.1-0.2-0.1-0.1-0.5 0.1-0.3 0.2-0.6 0.1-0.4-0.1-0.7-0.6-1.1-0.1-0.8 0-0.5-0.1-0.4-0.2-0.4-3.1-4.3-0.6-1.3 0.1-0.6 0.9-0.4 0.5-0.9 0-1.2-0.4-0.9-0.7-0.5-3.1-1.2-0.6 0.2-0.1 0.1-1.2 3-0.2 0.5-0.6 0.4-1.2-0.7-1.3-0.9-1.1-1.2-0.9-1.4-0.3-1.6 0-1.4-0.2-1.4-1.6-2.4-1.3-2.9-0.3-0.9-0.7-1.2-1.2-1.2-0.4-0.7 1.3 0.2 0.4 0 0.5 0.4 1.2 1.9 0.2 0.5 0.3 0.5 0.6 0.4 0.7 0.1 1.4-0.3 2.8 0.1 2.3-1.2 4.2-2.7 1.1-0.4 3.2 0.1 2.8-0.8 0.3 0.1 0.2-0.2 0.4-0.7 0.4-2.5-0.4-2.6-0.7-2.5-0.3-2.3 0-1.4-0.2-1.1-0.7-2.4-0.1-0.5 0.3-1.6-0.3-0.8-0.6-0.7-1.5-1.1-1.3-1.3-0.2-0.8 0.6-0.6 1.2-0.9 0.9-0.9 0.4-1 0.4-2.4 0.6-1.2 3.7-2.9 0.9-0.9 0.4-0.9 0.2-5-0.1-1.1-0.5-1.2-0.5-0.6-1.6-1.3-0.3-0.6 0.2-0.6 0.6-0.1 0.6 0 0.6-0.2 0.5-1.3-0.6-1-0.8-1.2-0.4-1.5-0.1-0.7-0.4-1.2 0-0.4 1.9-2.8 2-1.7 0.5-0.7 0.4-0.9 0-0.4-0.2-0.3-0.2-0.8-0.2-1.3 0.1-1.1 0.5-0.8 1.2-0.2 1-0.1 3.7-1.9 0.5-0.4 0.9-1.1 0.5-0.5 0.7-0.2 0.6 0.1 0.4-0.2 0.4-0.8 0-1.1-0.5-2.3-0.1-1.2 0.8-4.1 0.4-0.9 1.3-0.3 0.9 0.9 0.7 1 0.8 0.3 1.5-0.3 1.2 0.7 2.4 2.2 2 0.7 0.5 0.2 0.2 0.6 0 1.3 0.1 0.7 1.1 0.8 1.5-0.4 2.7-1.2 2.4-0.1 2.7 0.3 2.7-0.1 2.1-1.1 0.2 0 0.7-0.1 0.5 0.4 0.4 0.6 0.7 0.5 1 0.5 0.2-0.1 0.1-0.5 0.6-0.5 1.2-0.5 1.3-0.2 0.5-0.3 1-1.4 0.5-0.4 1.1-0.5 5.3-0.8 1.1-0.4 3.5-2.7 1.8 0.8 0.8 0.6 0.8 0.7 1.1 1.7 0.9-0.2 2.2-1.5 2.3-1 0.8-0.7 0.8-1.3 0.5-1.6-0.1-1.2-0.3-1.2-0.2-1.5 0.1-0.7 0.3-0.4 0.3-0.4 0.1-0.3 0-0.5-0.3-1.2-0.1-0.6 0.6-4.4 1.2-2.2 2.2-1.6 2.6-1.1 2.5-0.3 1.1 0.1 2.5 0.7 1 0.5 2.3 1.9 1.3 0.7 1.5-0.3 7.1-2.2 2-1.7 0.8-0.8 0.7-0.4 0.6-0.4 0.1 0 0.6-1.1 0.3-1.6-0.4-1-2-2.2-0.7-3.7-0.5-1.1-2.2-2.4-0.5-1 1.2-0.4 0.8 0.3 2.9 2 4.6 1.5 0.6 0.1 1-0.2 0.7 0.1 0.5 0.2 0.9 0.6 0.6 0.1 1.1-0.2 2.3-0.9 1.2-0.2 2.4 0 1.1-0.4 1-0.9 0.5-1.1 0.8-2.3 0.7-1 1-0.7 1.4-0.4 3.2-0.5 0.3-0.1 0.3 0 0.6 0.5 0.4 0.6 0.1 0.6 0.2 0.6 0.6 0.5 0.7 0.8 0.6 0.3 0.7 0 0.9 0.1 0.8 0.5 0.4 0.6 0.3 0.6 0.4 0.7 2.7 1.6-0.2 2.2 0.4 1.3 0.8 1 1.1 0.5 1 0 0.9-0.9 0-2.5 0.5-0.5 0.2-0.1 1.4-0.5 0.3 0 0.1-0.2 0.7-2.2 1.2-1.6 1.7-1.2 2.2-0.5 2.3 0.7 1.2 1.3 3.4 7.5 1.5 2.1 0.3 0.5 0.3 0.9 0.2 0.3 0.5 0.3 1 0.5 0.2 0.3 0.4 0.6 1 0.6 1 0.3 0.4-0.2 0.3-0.9 0.3 0 0.1 0.6 0.1 3.3-0.4 2.5-1.5 4.5-1.5 4.1-0.3 2.1-0.2 1.1-0.6 1-0.5 0.3-1.2 0.5-0.4 0.3-0.5 0.6-0.6 1.7-0.8 1.1-1.4 1.9-0.3 1.1 0.3 0.9 0.4 0.5 0.6 0.8 0.4 0.7 0.2 1 0.1 2.1 0.4 1.1 0.5 0.8 1.2 1.5 0.5 0.8 0.2 1.1 0 1 0.2 0.9 0.7 0.8 1 0.7 1.8 0.7 1.7 0.5 1 0 0.5-0.8 0.7-1.2 1.2-0.9 1.6-0.1 4.8 1.9 0.9 0.5 0.5 0.6 0.5 0.6 0.4 0.2 0.6-0.8 2.7-2.6 2.4-2.9 0.8-1.3 0.2-0.3 0.6-0.4 0.3 0 0.3 0.1 5.3-0.1 1.7 0.2 1.3 0.5 2.6 1.6 1.6 0.6 1.8 0.2 1.6-0.2 1.5-0.4 0.7-0.4 0.5-0.4 0.6-0.2 1 0.3 0.8 0.4 0.5 0.5 0.3 0.7 0.2 0.8 0.1 1.5-0.3 1.8-0.8 1.4-1.3 0.4-1.4 0.9-0.9 2.2-0.3 2.6 0.4 1.9 0.4 0.3 1 0.2 0.3 0.2 0.2 0.5 0 0.4-0.1 0.3 0 0.4 1.2 5.3-0.2 3.7 0.2 1.5 0.4 1 0.7 0.7 2.6 2.4 1.6 1.8 0.5 1.8-2.5 2.5-0.5 0.9-0.5 2.1-0.6 0.9-1.5 1.7-0.5 1.1-0.1 1.2 0.4 3.8-0.3 1.1-0.9 2-0.2 1 0.3 1.2 1.4 1.4 0.3 1-0.3 0.9-0.7 1.1-1.7 1.6-0.5 0.2-1.1 0.4-0.4 0.4-0.1 0.7 0 1.4-0.2 0.6-0.8 0.8-3.8 2.2-0.3 0.2-0.1 0.7-0.4 1.2-1.7 1.8-0.4 1.2 0.4 1.1 0.9 1.2 1.3 1.3 0.5 0.4 3.8 1.8 0.6 0.8-0.2 0.4-1 1.2-0.3 0.4-0.1 0.7 0 2.2 0.2 0.4 0.5 1.3 0.3 0.3 0.4 0.3 0.4 0.3 0.2 0.5-0.1 1-0.9 2.4-0.2 1.1 0.2 1.2 1 2.4 0.2 0.8-0.5 0.8-1.9 1.2-0.8 0.7-1 1.7-0.8 1.6-0.9 1.5-1.6 1.4-1.9 1-0.4 0.7-0.2 1.3 0.1 2.1-0.3 0.8-1.2 0.5-0.4 0.4-0.1 0.4 0.1 0.4 0.4 0.4 0.1 0.1 0 0.2 0 0.1-0.1 0.1-0.6 0.4-0.3 0.4-0.2 0.5 0.2 0.6 0.1 1.3-0.3 1.1-0.1 0.5-1.3 2.8-2 2.4-0.8 1.3 0 1.4 1 0.7 2.1 0.4 2.6 0.5 1.2 0.6 1.1 0.7 0.9 0.9 0.9 1 1 0.3 1.8 1 1.7 0.7 0.2 0.2 0.2 0 0.6-0.4 0.3-0.3 1-1.5 0.2-0.9 0.6-0.4 0.8-0.1 0.7-0.3 0.4-0.5 1.2-2.3 1.1-1.5 6.5-5.4 0.8-0.3 0.4 0.1 0.4-0.2 1.1-1.3 0.1-0.2 0-0.4-0.3-0.1-0.6 0-0.4-0.2 0.4-0.6 0.8-0.2 0.9 0 0.9 0 0.8-0.8 0.2-0.2 0.3-0.1 0.1 0 0.1 0.3 0.1 0.4 0.5 1.2 0.2-0.1 0.2-0.5 0.3-0.5 0.2-0.5 1.2-1.2 2-0.9 1.2-0.8-1.3-1.1 0.6-0.2 1.1-0.5 0.4-0.5 0.3-0.7 0.2-0.8 0-1 1.3 0.9 0.7-0.7 0.5-1.2 0.9-0.6 5.6-1.1 0.2-1.3 1.4-4.1 0.6-2.6 0.5-1.2 0.9-0.9 0.4 0 0.6 0.7 2.3 0.6 2.3 1.4 1.2-0.4 9-9.8 1-1 0.4-0.3 1.7 0.1 2.8 0.1 1.1 0.6 0.4 0.9 0.2 1.1 0.5 1.1 1.8 1.2 0.3 0.2 0.4 0.3 1.4 1.9 3 2.7 1.8 0.9 1.8-0.1 1.1 1.4 1.6 1.3 2 1.1 2.2 0.4 5 0 2 1 0.7 2.5-1 4.1 0 0.6 0.8 0.2 3.1 1.5 1.3 0.2 0-0.5-0.5-0.9-0.4-1.1 0.3-1 0.9-0.5 2.1-0.5 0.9-0.6 2.2-2 3.4-1.9 0.4-0.6 0.8-0.6 5.2-2.3 0.9-0.2 1.1 0.3 1.9 1.2 0.9 0.3 1.1-0.4 0.7-0.9 0.5-0.9 0.6-0.4 0.3-0.6-0.5-3.7 0.1-1.2 0.3-0.8 0.5-0.6 0.4-0.2 0.3-0.1 0.1-0.1-0.2 0.3 0 0.1-0.1 0 1.3-0.4 1-0.6 0.7-1 0.4-1.3 0.3-2.1 0.4-1 0.6-0.8 0.6-0.3 0.5-0.2 1.7-0.3 1.3-0.4 2.2-0.4 0.8-0.3 0.5-0.5 0.1-0.5-0.4-0.6-2.5-1.7-0.5-0.2-0.1-0.3-0.2-0.3-0.1-0.2 0.1-0.4 0.6-1.6 1-1.2 1.3-1 1.4-0.6 4.8-1 0.6 0 3.2 1 1.1 0.2 0.3 0 0.9-0.1 0.5 0 1.5 0.4 1.5 0.1 3.5 1 0.9 0.6 0.5 0.4 0.5 0.4 3.4 1.5 0.8 0.2 3.4 0.2 1.1 0.2 1 0.4 0.9 0.5 0.9 0.6 0.6 0.7 0.4 0.8 0.5 0.6 1 0.2 0.4-0.1 0.3-0.1 0.2-0.3 0.3-0.4 1-1.1 1.1-0.8 1.3-0.3 1.5 0.1 1.4 0.8 1.1 1.2 3 5.3 2.5 6.3 0.7 1.2 0.8 1 3.7 3.4 0.3 0.4 0.5 0.6 2.6 5.9 0.6 1.9 0.3 0.7 0.5 0.6 0.2 0.2 0.4 0.3 3.8 2.3 0.9 1.2 1.4 2.7 0.8 1.1 0.3 0.4 0.2 0.4 0.3 1.2 0.3 0.5 1.8 2.1 1.7 1.6 9.2 4.9 1.2 0.4 2.8 1.8 0.7 0.7 1.2 1.8 0.9 1.8 0.4 0.5 0.5 0.3 1 0.6 0.4 0.4 0.3 0.4 1.4 3.1 0.1 0.8 0.1 0.7-0.2 3.1 0.1 3.7-0.2 2.9-0.3 1.4-3.9 9.1-0.3 1.4 0.4 3.7 0.2 2 0.2 0.7 0.6 1.3 0.2 0.7 0 0.7-0.1 0.8-0.4 1.4 0 0.2-0.1 0.5 0 0.7 1.3 5.2 0 0.7 0 0.6-0.9 2.3-0.6 2.7-0.3 2.6 0.1 1.4 0.3 1.3 0.6 1.1 1.1 0.9 3.3 1.8 1 0.8 0.8 1 0.6 1 0.5 1.2 0.6 1.9 0.2 0.6 0.4 0.6 0.6 0.5 1.6 0.9 0.5 0.4 1.1 1.2 0.5 0.4 0.5 0.3 1.2 0.6 0.4 0.5 0.7 1.1 0.2 1.4-0.1 2.8 0.3 1.6 0.5 1.5 1 1.2 1.2 1 1.7 0.6 7.8 2.8 0.6 0.1 2.4 0.1 6.9 1.8 0.6 0.2 0.5 0.3 0 0.3 0.1 0.2-0.4 0.5-0.6 0.3-1.3 0.5-1.4 1.6-0.1 2.2 0.7 2.3 2.4 5.1 0.6 1 0.8 0.8 0.7 0.4 0.9 0.1 2.4-0.2 1.3 0.2 2.6 0.9 2.6 1.7 1.7 2.4 0.6 3-0.6 3.1-1.5 3.9-0.2 1.3-0.1 2.6-0.4 1.1-0.7 0.8-0.2 0.2-2.1 1.3-2.8 0.9-1.2 0.8-0.5 1.4 0.3 1.1 1 0.6 1.2 0.3 1.1-0.1 1.2-0.2 0.2 0.3 0.2 1.3-0.1 1.7-0.2 0-1.7 1.2-1.7 1.3-2.4 2.6-0.5 0.8-0.4 1.3-0.2 1.3 0 1.4 0.4 1 1.4 0.3 1.4 1.5 0.3 0.1 0.8-0.2 0.3 0.1 0.1 0.3 0 0.7 0.1 0.2 1.7 2.5 0.8 0.6 1.6 0.3-0.6 0.9-2.4 1.5-0.6 1.1 1 2-0.4 1.4-0.3 0.1-1 0-0.2 0-0.1 0.4 0 0.9 0.4 0.9 0.1 0.3-0.3 0.2-0.8 0.2-0.3 0.2-0.5 1.2-0.2 1.4 0.1 1.3 0.6 1.1 0.2 0.6-0.4 2.9-0.1 1.8 0.8 4.1-0.1 1.8-0.8 1.7-1.9 2.5-1.3 1.3-0.4 0.5-0.3 0.6-0.5 1.4-0.3 0.4-0.6 0.3-1.6 0.3-0.7 0.2-0.5 0.4-1.1 1.2-0.3 0.2-0.8 0-1-0.7-0.6-0.1-0.4 0.4-0.8 1.3-0.4 0.4-1.1 0.5-3.1 0.7-0.8 0-1.7 0.9-1.4 3.1-1.8 3.1-3.3 1-1.3-0.7-1-1.2-1.9-3.5-0.1-0.5 0.3-2.8-0.1-0.8-0.2-0.8-1.2-0.3-2.3-0.4-1.1-0.2-0.4-0.3-1-0.6-0.4-0.2-0.6 0-1.1 0.1-0.4 0-1-0.5-0.8-0.6-0.8-0.5-1-0.1-0.8 0.4-1.8 1.4-0.9 0.2-0.4-0.3-0.3-1.1-0.5-0.2-0.5 0.2-0.6 0.9-0.3 0.4-1.1 0-1.4-0.6-1 0-0.9 0.5-0.7 0.9-0.6 0.9-0.6 0.8-1.2 0.5-1-0.2-0.9-0.4-1.1-0.3-0.7 0.2-0.4 0.4-0.4 0.3-0.3 0.2-0.3 0-0.3 0-0.4-0.1-0.4-0.2-6.8-1-3.2-1.3-1.4-0.1-0.9 0.5-0.8 0.6-1.1 0.3-0.7-0.3-0.3-0.5-0.1-0.6 0.2-0.2-0.5 0-0.2 0.2-0.1 0.3-1.4 1.6-0.5 0.2-0.7 0-0.5-0.3-0.3-0.4-0.3-0.2-2.2 0.6-1.7 0.9-0.5 0.3-2.1 0.4-1.6-1.3-3.3 0.1-0.5 0.5-0.2 0.5-0.3 0.4-1 0.1-0.9-0.2-0.7-0.4-0.6-0.4-0.6-0.4-0.9-0.3-0.5 0-0.5 0.1-0.7 0.1-1.2-0.1-3.5-0.9-2-0.2-0.5-0.1-0.1-0.6 0.1-1.4-0.2-0.7-0.3-0.4-0.5-0.3-0.6-0.2-0.6 0.1-0.6 0.3-0.2 0.5-0.1 0.5-0.3 0.4-1.3 0.7-0.8-0.2-0.8-0.5-1.1-0.4-1 0.2-2.3 1.1-2.2 1.6-0.5 0.2-0.6-0.1-0.5-0.3-0.3-0.3-0.2-0.1-0.9 0.2-1.6 1.2-1.1 0.5-1.2 0.2-4.1 0-1.8 0.5-2.6 0.8-3.6 0.6-1.2 0.4-2 1.1-4.1 3.5-0.7 0.6-1 0.6-2.2 0.6-1 0.5-0.9 0.9-0.3 1 0 0.3 0 0.8-0.2 1.2-0.4 1-1.2 1.8-0.5 1-0.2 1.4 0.1 0.9-0.2 0.8-0.9 1-3.5 2.7-1.4 1.5-1.1 1.9-1 3.4-0.5 1-1.1 1.4-0.3 0.5-0.1 0.6-0.1 1.3-0.2 0.6-1.4 1.2-6 2.9-2 1.5 0 1.3 1.2 1.3 2.1 1.3-1 0.4-2.8 1.6-1.2 0.4-3.6 0.3-4.8-0.4-2.4 0.3-1.1 1.4 0.1 0.7 0.6 1 0.3 0.5 0 0.5 0 0.8 0 0.1 0.2 4.7-0.4 3.7 0.1 4.3 0 0.1 3.2 8.4 1.2 2 2.7 3.2 0.9 1.9 0.6 0.8 1 0.7 0 0.3-0.2 0.4-0.3 0.2-0.4 0.2-0.3 0.3-0.1 0.2 0.1 0.3 0.5 0.4 0.1 0.3-0.1 0.2-0.7 0.7-0.1 0.7 0.2 0.6 0.4 0.7 0.3 1.4 0.2 2.4 0.4 1.2 0.4 0.7 0.3 0.4 0.2 0.4 0.1 0.7 0 0.6-0.7 1.9-0.7 0.7-0.3 1-0.1 1.3 0.2 1.3 0.4 0.9 0.6 0.5 0.3 0.2 3.4 1.2 1.8 1.3 4.5 4.6 1.5 0.9 0.5 0.4 0.2 0.5 0.1 1 0.1 0.5 0.8 0.9 2 1 0.6 0.8 0.1 0.6 0.1 0.6-0.5 0.8-1.5 1.4-0.7 1.1-0.3 1.2-1.3 10 0.4 2.4 3.1 4.8 0.8 1 0.4 0.4 0.9 2.1 0.6 3 2.8 5.3 2.5 3.6 1.7 2.5 0.7 2.5 0.2 3.4-0.9 1.4z m-300.5 137.4l-1.9-1.5-0.3-0.5 0.2-0.4 0.3-0.3 0.5-0.2 0.3-0.1 0.7 0.5 0.4 0.9 0.1 1-0.3 0.6z m108.9-9.8l0.3 1.2-1.3 0.6-0.8-0.4 1.8-1.4z m-0.9-4.7l-0.2 0.5-0.2 0.1 0-0.3-0.1-0.6 0.2 0 0.1 0.1 0.1 0.1 0.1 0.1z m-26 183.3l0.7 0.5-0.1 0.3-0.6 0.3-1.8 1.2-1.3 0.2-1.3-0.3-0.9-1 1.1 0.3 0.5-0.6 0.6-0.7 1.1-0.2-0.5 0 2-0.1 0.5 0.1z m25.3 3.5l0 0.6-0.1 0.3-0.3 0.3-0.4 0.3-0.7-1.1-0.8-2.5-2-1.9 0.2-0.8 0.6-0.7 0.6-0.9 0.1-0.6-0.1-1.1 0-0.3 0.3-0.4 0.5-0.2 0.3-0.3 0.2-0.6 0.1-1.1 0.2-1.1 0.4-0.3 1.4 3 0 3 0.9 2.2 0.5 1.7 0 0.8-0.3 0.7-0.4 0.3-0.5 0.1-0.5 0.1-0.2 0.5z m-15.9-45l0.8 0.6 1.6 0.3 0.5 0.7-0.8 0-0.7 0-0.7 0.3-0.5 0.3-0.9 1.5-0.6 0.6-0.3-0.4 0-3.1 0.4-1.4 1.2 0.6z m-22.1-22.7l1.9 1.7 0.6 0.4 0 2.2 0.6 2.2 0.9 1.9 0.9 1.5-1 0.7-1.4-0.8-1.2-1.4-1.5-3.5-0.2-0.6 0.1-2-0.1-1-0.4-0.9 0.1-0.1 0.1-0.1 0.1 0 0.1-0.2 0.4 0z m5.3-0.8l0.2 0.8 0 1.1-0.2 1.1-0.4 0.7-0.5 0.1-0.5-0.2-0.4-0.2-0.2-0.3-0.1-0.4-0.4-0.2-0.4-0.2-0.3-0.2-1.5-2.5 1.3-0.7 2.3 0.4 1.1 0.7z m-34.7-26.9l-0.1-0.1 2.8 1.6 0.9 1 0.5 1.7 0.1 6.5-0.5 1.4-0.9-0.1-0.7-0.9-0.3-1.2-0.2-1.4-0.3-0.9 0-0.5 0.3-0.4 0.4-0.1 0.3-0.1 0.2-0.6-0.1-0.5-0.1-0.6-0.3-0.4-0.5-0.2-0.7-0.1-0.2-0.4-0.1-0.4-0.8-1.3-0.3-1-0.2-1.2 0-1 0.3 0.3 0.2 0.3 0.3 0.6z m-7.3 12.1l0.2-0.3 0.3-0.3 0.3-0.2 0.4 0.9 0.1 0.9-0.5 0.7-1.9 0.6-0.3 0.9 0.2 2.1-2.2-1-1.1-0.1-0.4 1.3-0.2 1.6-0.6 0.9-0.8 0.2-1.1-0.6-0.3-0.9-0.3-3.9-0.2-0.4-0.3-0.4-0.2-0.5-0.1-0.7 0.3-0.2 0.4-0.2 0.3-0.4-0.2-0.8-0.3-0.3-1.1-0.3-0.2-0.1 0.3-0.6 0.5-0.5 0.4-0.4-0.2-0.5-0.3-0.7 0.2-0.7 0.5-0.5 0.2-0.6 0-0.7-0.3-1.2-0.1-2.1 0-0.4 0.2-0.4 0.4-1 0.2-0.6 0.1-1.3 0-1.3-0.5-2.4 0.3 0.1 0.2 0.1 0.4 0.2 0.4-0.1 0.5 0.1 0.6 0.4 0.5 0.5 0.3 0.9 0.5 2.8 0.4 0 0.6-0.6 0.8 0.5 0.9 0.9 1 0.8 0.4-0.7 0.6-0.3 0.6 0.2 0.4 0.8 0 1-0.4 1-0.8 1.3-0.1 0.5 0.2 1.1-0.1 0.5-0.3 0.2-0.3 0.2-0.4 0.3-0.2 0.5-0.1 1.1 0.3 1.1 0.4 1.1 0.6 0.9z m13-16.1l-0.9 4.1-0.1 0.8-1.9-0.7-0.5-0.3-0.6-0.8 0.3-0.3 1.3-0.4-0.3-1 0.6-0.8 0.8-0.9 0.5-1 0.5 0.2 0.2 0.2 0.1 0.4 0 0.5z m-20.3-58.7l0.7 0.7 0.6 1 0.3 1.1 0 1.3-1.3 1.3 0.5 0.4-0.9 0.4-1.2 0.4-1.2-0.1-0.8-0.7-0.1-0.9 0.5-4.8 0-0.4 0.2-0.3 0.6-0.2 0.7-0.1 0.6 0.2 0.8 0.7z m105.7-26.7l0.4 0.1 0.6 0.6 0.2 0.8-0.6 0.7-0.5 1.7-0.2 1.9-0.4 1.6-1.8 0.8-0.1 0.4 0 0.5-0.2 0.4-0.4 0.2-0.5 0-0.5 0-2.8 0.3-0.5 0.2-0.4-1.2-0.2-2.2-0.7-1.2 0.9-1.1-0.1-1.1-0.5-1.1-0.3-1.1 0.6-0.7 1.4-0.1 1.5 0.1 3.5 0.9 1.2-0.2 0.4-1.2z m-98.8-11l0.3 1.3 0 0.8-1.1 1.7-0.8-1.3 0.3-0.9 0.7-0.8 0.6-1.2 0 0.4z m96.7-1.6l1.9 1.2 0.8 2 0.6 4.6-0.7-0.5-1.4-0.8-3.3-1.4-0.7-0.6 0.3-0.7-0.2-0.7-1.1-1.3 0-0.4 0.8-1.2 0.2-0.6 0.6 0.3 0.6 0 1.1-0.1 0.5 0.2z m150.7-116l1.6-0.2 0.9 1.6 0.2 2.2-1 1.8 0 0.4 0.8 0-0.5 0.8-0.1 0.6 0.2 1.5-0.4 0-0.4-0.3-0.5-1-0.3-0.3-0.6-0.3-1.9-0.6 0.5-0.6 0.3-0.3 0.1-0.4-0.1-0.7-0.1-0.6-0.6-1.4-0.1-0.6 1.2-4.4 0.3-0.4 0.5 0.3 0.3 0.7 0.1 0.6 0 0.8-0.4 0.8z m-9.8-20.5l0.5 0.5 0.6 1.1 0.9 1 0.6 1.1-0.1 1-0.8 0.3-1-0.6-1.9-1.9-0.2 0.7 0.2 0.7-0.2 0.5-0.8 0.3-0.8-0.1-2.2-0.8 0 0.4 0.1 0.2 0.3 0.6-0.4-0.3-0.3-0.2-0.4-0.2-0.6-0.1 0-0.4 0.3-0.8 0-3.8-0.6-0.6-1.7-4 0.8 0-0.2-0.4-0.3-0.3-0.3-0.3-0.4-0.3 1 0.1 1.6 0.4 1.1 0 1.9 1.3 0.7 0.8 0.7 0.8 0.7 1.6 0.5 0.8 0.7 0.6 0 0.3z m-269.9 158.8l-1.2-1 0.2-1.1 1.1-0.7 1.4 0.3 0.2 0.4 0.1 0.5-0.1 0.5-0.2 0.3-0.5 0.1-0.6-0.3-0.4 0.1 0 0.9z m24.9 25.5l0.7 0.4 0.7 1.1-0.3 1.3-0.7 1.4-1.4 3.4-0.6-0.1-0.5-1.1-0.1-1.3 0.3-1.2 0-1.6-0.2-1.9 0.5-1 1.1 0.3 0.5 0.3z" id="TH" name="Thailand">
  </path>
 </g>
 <g id="points">
  <circle class="6.370645865797576|97.7663808609988" cx="277.4" cy="910.2" id="0">
  </circle>
  <circle class="12.296692407248322|101.91617923078994" cx="524.7" cy="552.1" id="1">
  </circle>
  <circle class="19.704250584061754|105.23601792662285" cx="722.6" cy="92.5" id="2">
  </circle>
 </g>
 <g id="label_points">
  <circle class="Thailand" cx="474.5" cy="357.9" id="TH">
  </circle>
 </g>
</svg>